REM DIRINDEX 1\2,1\3,1\4,1\5,1\6
REM DIRNAME "folder01","folder02","folder03","folder04","folder05","folder06"
TITLE ""
FILE "Disc1Track65.mp3" MP3
  TRACK 01 AUDIO
    TITLE "3:cjc161_01610"
    INDEX 01 00:00:00
  TRACK 02 AUDIO
    TITLE "4:cjc161_01611"
    INDEX 01 00:01:18
  TRACK 03 AUDIO
    TITLE "5:cjc161_01612"
    INDEX 01 00:04:61
  TRACK 04 AUDIO
    TITLE "6:cjc161_01613"
    INDEX 01 00:06:15
  TRACK 05 AUDIO
    TITLE "0:"
    INDEX 01 00:11:65
  TRACK 06 AUDIO
    TITLE "3:cjc161_01614"
    INDEX 01 00:12:21
  TRACK 07 AUDIO
    TITLE "4:cjc161_01615"
    INDEX 01 00:13:62
  TRACK 08 AUDIO
    TITLE "5:cjc161_01616"
    INDEX 01 00:15:63
  TRACK 09 AUDIO
    TITLE "0:"
    INDEX 01 00:17:28
  TRACK 10 AUDIO
    TITLE "3:cjc161_01617"
    INDEX 01 00:17:62
  TRACK 11 AUDIO
    TITLE "4:cjc161_01618"
    INDEX 01 00:19:15
  TRACK 12 AUDIO
    TITLE "5:cjc161_01619"
    INDEX 01 00:22:20
  TRACK 13 AUDIO
    TITLE "6:cjc161_01620"
    INDEX 01 00:23:49
  TRACK 14 AUDIO
    TITLE "0:"
    INDEX 01 00:27:44
  TRACK 15 AUDIO
    TITLE "3:cjc161_01621"
    INDEX 01 00:27:74
  TRACK 16 AUDIO
    TITLE "4:cjc161_01622"
    INDEX 01 00:29:39
  TRACK 17 AUDIO
    TITLE "5:cjc161_01623"
    INDEX 01 00:31:30
  TRACK 18 AUDIO
    TITLE "0:"
    INDEX 01 00:32:71
  TRACK 19 AUDIO
    TITLE "3:cjc161_01624"
    INDEX 01 00:33:35
  TRACK 20 AUDIO
    TITLE "4:cjc161_01625"
    INDEX 01 00:34:60
  TRACK 21 AUDIO
    TITLE "5:cjc161_01626"
    INDEX 01 00:36:18
  TRACK 22 AUDIO
    TITLE "6:cjc161_01627"
    INDEX 01 00:37:43
  TRACK 23 AUDIO
    TITLE "0:"
    INDEX 01 00:42:46
  TRACK 24 AUDIO
    TITLE "3:cjc161_01628"
    INDEX 01 00:43:02
  TRACK 25 AUDIO
    TITLE "4:cjc161_01629"
    INDEX 01 00:44:41
  TRACK 26 AUDIO
    TITLE "5:cjc161_01630"
    INDEX 01 00:47:31
  TRACK 27 AUDIO
    TITLE "6:cjc161_01631"
    INDEX 01 00:48:70
  TRACK 28 AUDIO
    TITLE "0:"
    INDEX 01 00:51:00
  TRACK 29 AUDIO
    TITLE "3:cjc161_01632"
    INDEX 01 00:51:29
  TRACK 30 AUDIO
    TITLE "4:cjc161_01633"
    INDEX 01 00:52:68
  TRACK 31 AUDIO
    TITLE "5:cjc161_01634"
    INDEX 01 00:55:17
  TRACK 32 AUDIO
    TITLE "6:cjc161_01635"
    INDEX 01 00:56:54
  TRACK 33 AUDIO
    TITLE "0:"
    INDEX 01 01:02:64
  TRACK 34 AUDIO
    TITLE "3:cjc161_01636"
    INDEX 01 01:03:21
  TRACK 35 AUDIO
    TITLE "4:cjc161_01637"
    INDEX 01 01:04:67
  TRACK 36 AUDIO
    TITLE "5:cjc161_01638"
    INDEX 01 01:06:62
  TRACK 37 AUDIO
    TITLE "0:"
    INDEX 01 01:08:36
  TRACK 38 AUDIO
    TITLE "3:cjc161_01639"
    INDEX 01 01:08:69
  TRACK 39 AUDIO
    TITLE "4:cjc161_01640"
    INDEX 01 01:10:25
  TRACK 40 AUDIO
    TITLE "5:cjc161_01641"
    INDEX 01 01:11:52
  TRACK 41 AUDIO
    TITLE "6:cjc161_01642"
    INDEX 01 01:13:05
  TRACK 42 AUDIO
    TITLE "0:"
    INDEX 01 01:17:17
  TRACK 43 AUDIO
    TITLE "3:cjc161_01643"
    INDEX 01 01:17:48
  TRACK 44 AUDIO
    TITLE "4:cjc161_01644"
    INDEX 01 01:18:73
  TRACK 45 AUDIO
    TITLE "5:cjc161_01645"
    INDEX 01 01:22:24
  TRACK 46 AUDIO
    TITLE "6:cjc161_01646"
    INDEX 01 01:23:49
  TRACK 47 AUDIO
    TITLE "0:"
    INDEX 01 01:27:04
  TRACK 48 AUDIO
    TITLE "3:cjc161_01647"
    INDEX 01 01:27:33
  TRACK 49 AUDIO
    TITLE "4:cjc161_01648"
    INDEX 01 01:28:66
  TRACK 50 AUDIO
    TITLE "5:cjc161_01649"
    INDEX 01 01:30:14
  TRACK 51 AUDIO
    TITLE "6:cjc161_01650"
    INDEX 01 01:31:42
  TRACK 52 AUDIO
    TITLE "0:"
    INDEX 01 01:35:25
  TRACK 53 AUDIO
    TITLE "3:cjc161_01651"
    INDEX 01 01:35:56
  TRACK 54 AUDIO
    TITLE "4:cjc161_01652"
    INDEX 01 01:37:12
  TRACK 55 AUDIO
    TITLE "5:cjc161_01653"
    INDEX 01 01:40:49
  TRACK 56 AUDIO
    TITLE "6:cjc161_01654"
    INDEX 01 01:42:03
  TRACK 57 AUDIO
    TITLE "0:"
    INDEX 01 01:45:25
  TRACK 58 AUDIO
    TITLE "3:cjc161_01655"
    INDEX 01 01:45:56
  TRACK 59 AUDIO
    TITLE "4:cjc161_01656"
    INDEX 01 01:47:20
  TRACK 60 AUDIO
    TITLE "5:cjc161_01657"
    INDEX 01 01:49:15
  TRACK 61 AUDIO
    TITLE "6:cjc161_01658"
    INDEX 01 01:50:54
  TRACK 62 AUDIO
    TITLE "0:"
    INDEX 01 01:52:72
  TRACK 63 AUDIO
    TITLE "3:cjc161_01659"
    INDEX 01 01:53:28
  TRACK 64 AUDIO
    TITLE "4:cjc161_01660"
    INDEX 01 01:54:57
  TRACK 65 AUDIO
    TITLE "5:cjc161_01661"
    INDEX 01 01:59:31
  TRACK 66 AUDIO
    TITLE "6:cjc161_01662"
    INDEX 01 02:00:58
  TRACK 67 AUDIO
    TITLE "0:"
    INDEX 01 02:04:54
  TRACK 68 AUDIO
    TITLE "3:cjc161_01663"
    INDEX 01 02:05:10
  TRACK 69 AUDIO
    TITLE "4:cjc161_01664"
    INDEX 01 02:06:45
  TRACK 70 AUDIO
    TITLE "5:cjc161_01665"
    INDEX 01 02:08:40
  TRACK 71 AUDIO
    TITLE "0:"
    INDEX 01 02:10:01
  TRACK 72 AUDIO
    TITLE "3:cjc161_01666"
    INDEX 01 02:10:37
  TRACK 73 AUDIO
    TITLE "4:cjc161_01667"
    INDEX 01 02:11:71
  TRACK 74 AUDIO
    TITLE "5:cjc161_01668"
    INDEX 01 02:13:06
  TRACK 75 AUDIO
    TITLE "0:"
    INDEX 01 02:14:42
  TRACK 76 AUDIO
    TITLE "3:cjc161_01669"
    INDEX 01 02:15:04
  TRACK 77 AUDIO
    TITLE "4:cjc161_01670"
    INDEX 01 02:16:43
  TRACK 78 AUDIO
    TITLE "5:cjc161_01671"
    INDEX 01 02:17:64
  TRACK 79 AUDIO
    TITLE "0:"
    INDEX 01 02:19:30
